C:\Users\u0088756\Documents\FWO\Software\ExoSim\PredSim_2D\Polynomials\Gait18_shorterHamstring\dummy_motion_mtp.mot
nRows=40
nColumns=13

name C:\Users\u0088756\Documents\FWO\Software\ExoSim\PredSim_2D\Polynomials\Gait18_shorterHamstring\dummy_motion_mtp.mot
datacolumns 13
datarows 40
range 25.0100000000 25.4000000000
endheader
time	pelvis_tilt	pelvis_tx	pelvis_ty	hip_flexion_r	knee_angle_r	ankle_angle_r	mtp_angle_r	hip_flexion_l	knee_angle_l	ankle_angle_l	mtp_angle_l	lumbar_extension
       25.0100000000	        0.0000000000	        0.0000000000	        0.0000000000	       39.9851472328	      -54.1785015390	      -15.2217831353	        0.0000000000	       39.9851472328	      -54.1785015390	      -15.2217831353	        0.0000000000	        0.0000000000	
       25.0200000000	        0.0000000000	        0.0000000000	        0.0000000000	       25.9193953901	      -24.6402653610	      -24.5130084337	        0.0000000000	       25.9193953901	      -24.6402653610	      -24.5130084337	        0.0000000000	        0.0000000000	
       25.0300000000	        0.0000000000	        0.0000000000	        0.0000000000	        3.9032409561	      -33.6913553405	      -22.6959176238	        0.0000000000	        3.9032409561	      -33.6913553405	      -22.6959176238	        0.0000000000	        0.0000000000	
       25.0400000000	        0.0000000000	        0.0000000000	        0.0000000000	       42.1542901843	      -56.9566681924	      -20.3762298773	        0.0000000000	       42.1542901843	      -56.9566681924	      -20.3762298773	        0.0000000000	        0.0000000000	
       25.0500000000	        0.0000000000	        0.0000000000	        0.0000000000	      -49.2089940708	      -69.4324075859	       13.9870904867	        0.0000000000	      -49.2089940708	      -69.4324075859	       13.9870904867	        0.0000000000	        0.0000000000	
       25.0600000000	        0.0000000000	        0.0000000000	        0.0000000000	       34.8276023708	      -88.4679415813	       28.2520964718	        0.0000000000	       34.8276023708	      -88.4679415813	       28.2520964718	        0.0000000000	        0.0000000000	
       25.0700000000	        0.0000000000	        0.0000000000	        0.0000000000	       44.0079069331	      -13.3764302303	       27.7177155434	        0.0000000000	       44.0079069331	      -13.3764302303	       27.7177155434	        0.0000000000	        0.0000000000	
       25.0800000000	        0.0000000000	        0.0000000000	        0.0000000000	      -45.9947064784	      -76.3414401625	        2.6238702396	        0.0000000000	      -45.9947064784	      -76.3414401625	        2.6238702396	        0.0000000000	        0.0000000000	
       25.0900000000	        0.0000000000	        0.0000000000	        0.0000000000	      -20.4676209073	      -78.0350558541	      -13.6529115725	        0.0000000000	      -20.4676209073	      -78.0350558541	      -13.6529115725	        0.0000000000	        0.0000000000	
       25.1000000000	        0.0000000000	        0.0000000000	        0.0000000000	       45.1941449166	      -48.5413449347	      -24.2547025774	        0.0000000000	       45.1941449166	      -48.5413449347	      -24.2547025774	        0.0000000000	        0.0000000000	
       25.1100000000	        0.0000000000	        0.0000000000	        0.0000000000	       17.6909725814	      -56.8210838393	      -16.4155144787	        0.0000000000	       17.6909725814	      -56.8210838393	      -16.4155144787	        0.0000000000	        0.0000000000	
       25.1200000000	        0.0000000000	        0.0000000000	        0.0000000000	      -14.3551956482	      -65.8604130423	      -19.5563813824	        0.0000000000	      -14.3551956482	      -65.8604130423	      -19.5563813824	        0.0000000000	        0.0000000000	
       25.1300000000	        0.0000000000	        0.0000000000	        0.0000000000	      -29.4368945523	      -38.5287945950	      -10.4749723471	        0.0000000000	      -29.4368945523	      -38.5287945950	      -10.4749723471	        0.0000000000	        0.0000000000	
       25.1400000000	        0.0000000000	        0.0000000000	        0.0000000000	      -21.4094317226	      -62.6271582134	      -24.6090491990	        0.0000000000	      -21.4094317226	      -62.6271582134	      -24.6090491990	        0.0000000000	        0.0000000000	
       25.1500000000	        0.0000000000	        0.0000000000	        0.0000000000	        2.8746534306	      -50.9936343373	        5.4961721914	        0.0000000000	        2.8746534306	      -50.9936343373	        5.4961721914	        0.0000000000	        0.0000000000	
       25.1600000000	        0.0000000000	        0.0000000000	        0.0000000000	      -47.4996262820	      -43.3928485860	        2.4239843808	        0.0000000000	      -47.4996262820	      -43.3928485860	        2.4239843808	        0.0000000000	        0.0000000000	
       25.1700000000	        0.0000000000	        0.0000000000	        0.0000000000	        2.5676832314	       -9.6059726420	       11.9341536620	        0.0000000000	        2.5676832314	       -9.6059726420	       11.9341536620	        0.0000000000	        0.0000000000	
       25.1800000000	        0.0000000000	        0.0000000000	        0.0000000000	       38.0276793704	      -79.1447868675	       25.7497573522	        0.0000000000	       38.0276793704	      -79.1447868675	       25.7497573522	        0.0000000000	        0.0000000000	
       25.1900000000	        0.0000000000	        0.0000000000	        0.0000000000	        7.7596426644	      -24.9682363476	      -25.9516908666	        0.0000000000	        7.7596426644	      -24.9682363476	      -25.9516908666	        0.0000000000	        0.0000000000	
       25.2000000000	        0.0000000000	        0.0000000000	        0.0000000000	        6.9016977567	      -25.2649235894	      -12.1152798879	        0.0000000000	        6.9016977567	      -25.2649235894	      -12.1152798879	        0.0000000000	        0.0000000000	
       25.2100000000	        0.0000000000	        0.0000000000	        0.0000000000	       14.9613712609	      -33.9009715551	      -21.1061591757	        0.0000000000	       14.9613712609	      -33.9009715551	      -21.1061591757	        0.0000000000	        0.0000000000	
       25.2200000000	        0.0000000000	        0.0000000000	        0.0000000000	       -0.5924875101	      -82.0743902610	      -28.9582906327	        0.0000000000	       -0.5924875101	      -82.0743902610	      -28.9582906327	        0.0000000000	        0.0000000000	
       25.2300000000	        0.0000000000	        0.0000000000	        0.0000000000	       20.1327319847	      -33.6415778399	      -18.7445767556	        0.0000000000	       20.1327319847	      -33.6415778399	      -18.7445767556	        0.0000000000	        0.0000000000	
       25.2400000000	        0.0000000000	        0.0000000000	        0.0000000000	       18.0865408774	      -50.6632239203	       -8.7256368876	        0.0000000000	       18.0865408774	      -50.6632239203	       -8.7256368876	        0.0000000000	        0.0000000000	
       25.2500000000	        0.0000000000	        0.0000000000	        0.0000000000	      -45.0152114940	      -68.5728097256	      -16.9089502632	        0.0000000000	      -45.0152114940	      -68.5728097256	      -16.9089502632	        0.0000000000	        0.0000000000	
       25.2600000000	        0.0000000000	        0.0000000000	        0.0000000000	        3.0730254513	      -39.5845034555	       15.1272369737	        0.0000000000	        3.0730254513	      -39.5845034555	       15.1272369737	        0.0000000000	        0.0000000000	
       25.2700000000	        0.0000000000	        0.0000000000	        0.0000000000	      -29.1010529838	      -14.5945147081	       -5.0922625470	        0.0000000000	      -29.1010529838	      -14.5945147081	       -5.0922625470	        0.0000000000	        0.0000000000	
       25.2800000000	        0.0000000000	        0.0000000000	        0.0000000000	       15.2226403754	      -37.0299117520	      -28.2196349703	        0.0000000000	       15.2226403754	      -37.0299117520	      -28.2196349703	        0.0000000000	        0.0000000000	
       25.2900000000	        0.0000000000	        0.0000000000	        0.0000000000	       38.9961106656	      -24.5037657026	      -10.1816997233	        0.0000000000	       38.9961106656	      -24.5037657026	      -10.1816997233	        0.0000000000	        0.0000000000	
       25.3000000000	        0.0000000000	        0.0000000000	        0.0000000000	      -47.3664123739	      -80.5123213228	      -24.9464065803	        0.0000000000	      -47.3664123739	      -80.5123213228	      -24.9464065803	        0.0000000000	        0.0000000000	
       25.3100000000	        0.0000000000	        0.0000000000	        0.0000000000	       30.3948318081	      -25.9435336902	      -13.3738013576	        0.0000000000	       30.3948318081	      -25.9435336902	      -13.3738013576	        0.0000000000	        0.0000000000	
       25.3200000000	        0.0000000000	        0.0000000000	        0.0000000000	       -9.1716747446	      -42.4695514471	       -9.5503655191	        0.0000000000	       -9.1716747446	      -42.4695514471	       -9.5503655191	        0.0000000000	        0.0000000000	
       25.3300000000	        0.0000000000	        0.0000000000	        0.0000000000	      -42.7217239685	      -89.7353536723	      -21.9614311707	        0.0000000000	      -42.7217239685	      -89.7353536723	      -21.9614311707	        0.0000000000	        0.0000000000	
       25.3400000000	        0.0000000000	        0.0000000000	        0.0000000000	       38.6323121309	      -14.6302536978	      -12.2848411266	        0.0000000000	       38.6323121309	      -14.6302536978	      -12.2848411266	        0.0000000000	        0.0000000000	
       25.3500000000	        0.0000000000	        0.0000000000	        0.0000000000	       24.1357911539	      -59.5935680953	      -20.9362896878	        0.0000000000	       24.1357911539	      -59.5935680953	      -20.9362896878	        0.0000000000	        0.0000000000	
       25.3600000000	        0.0000000000	        0.0000000000	        0.0000000000	       49.8456241806	      -41.2622466388	        1.5887073746	        0.0000000000	       49.8456241806	      -41.2622466388	        1.5887073746	        0.0000000000	        0.0000000000	
       25.3700000000	        0.0000000000	        0.0000000000	        0.0000000000	        4.7377304638	       -7.2769154406	        6.7879866422	        0.0000000000	        4.7377304638	       -7.2769154406	        6.7879866422	        0.0000000000	        0.0000000000	
       25.3800000000	        0.0000000000	        0.0000000000	        0.0000000000	       -2.6265942133	      -12.9599566570	      -12.7176856343	        0.0000000000	       -2.6265942133	      -12.9599566570	      -12.7176856343	        0.0000000000	        0.0000000000	
       25.3900000000	        0.0000000000	        0.0000000000	        0.0000000000	        8.4267514270	       -1.9099831449	      -10.9831274292	        0.0000000000	        8.4267514270	       -1.9099831449	      -10.9831274292	        0.0000000000	        0.0000000000	
       25.4000000000	        0.0000000000	        0.0000000000	        0.0000000000	       -9.6895787296	      -40.5170960691	      -29.1492170383	        0.0000000000	       -9.6895787296	      -40.5170960691	      -29.1492170383	        0.0000000000	        0.0000000000	
